<svg xmlns="http://www.w3.org/2000/svg" height="40" fill="white" viewBox="0 96 960 960" width="40"><path d="M480 1001.67q-88.468 0-165.901-33.337Q236.667 935 178.833 877.167 121 819.333 87.667 741.901 54.333 664.468 54.333 576q0-88.333 33.334-165.833 33.333-77.5 91.166-135.334Q236.667 217 314.099 183.667 391.532 150.333 480 150.333q88.333 0 165.833 33.334 77.5 33.333 135.334 91.166Q839 332.667 872.333 410.167q33.334 77.5 33.334 166.107v54.393q0 67.333-44.167 107.833T749.333 779q-40.265 0-73.799-18.667-33.534-18.667-50.201-50-23.666 35-61.333 51.833Q526.333 779 480 779q-84.56 0-144.113-58.811t-59.553-144.5q0-84.689 59.506-144.355 59.506-59.667 144-59.667 85.493 0 144.66 59.167Q683.666 490 683.666 576v46.956q0 27.977 19.167 46.344t46.5 18.367q26.667 0 45.334-18.367t18.667-46.344V576q0-139.667-96.834-236.5-96.833-96.834-236.833-96.834-138.001 0-235.501 97.5T146.666 576q0 139.667 96.834 236.5 96.833 96.834 236.5 96.834h163.667q19.2 0 32.433 13.327 13.234 13.328 13.234 32.667 0 19.339-13.234 32.839-13.233 13.503-32.433 13.503H480Zm.157-314.003q46.176 0 79.176-32.686 33.001-32.687 33.001-78.667 0-46.647-33.157-79.981Q526.02 463 479.843 463q-46.176 0-79.176 33.333-33.001 33.334-33.001 79.981 0 45.98 33.157 78.667 33.157 32.686 79.334 32.686Z"/></svg>