<svg width="99" height="55" viewBox="0 0 99 55" fill="none" xmlns="http://www.w3.org/2000/svg">
<g clip-path="url(#clip0_1_2845)">
<path d="M0.000488281 7.09267C0.000488281 7.09267 22.4795 -0.356637 26.9544 0.000216502C31.4293 0.35707 68.7202 3.34572 72.4493 3.34572C76.1784 3.34572 91.4677 5.57605 91.4677 5.57605L99.0005 10.9735L0.000488281 7.09267Z" fill="#2B72FB"/>
<path d="M99.0005 10.9883L90.9158 24.5487L73.0758 34.9569L66.0055 45.5584L43.8696 52.2346L39.4543 52.5171L34.7407 55.0002L7.57801 36.8155L3.31192 22.3927L0.000488281 7.09265L99.0005 10.9883Z" fill="url(#paint0_linear_1_2845)"/>
<path d="M0.000488281 7.09269L26.9544 3.3606C26.9544 3.3606 58.8456 3.3606 68.3473 4.72853C73.8962 5.53145 88.738 7.09269 88.738 7.09269L99.0005 10.9883C99.0005 10.9883 57.6075 20.3706 55.9369 20.4747C40.2952 21.0783 24.6495 19.385 9.50222 15.449L0.000488281 7.09269Z" fill="url(#paint1_linear_1_2845)"/>
<path style="mix-blend-mode:multiply" opacity="0.5" d="M99.0005 10.9883L90.9158 24.5487L73.0758 34.9569L66.0054 45.5584L43.8695 52.2346L39.4543 52.5171L34.7407 55.0002L7.578 36.8155L25.8356 40.5328L32.548 25.2921L35.77 29.7974L44.1082 44.6217L63.3802 35.9531L76.9093 15.9248L99.0005 10.9883Z" fill="url(#paint2_linear_1_2845)"/>
<path style="mix-blend-mode:multiply" opacity="0.5" d="M25.8356 40.5328L34.7407 55.0002L7.578 36.8156L25.8356 40.5328Z" fill="url(#paint3_linear_1_2845)"/>
<path style="mix-blend-mode:multiply" opacity="0.5" d="M35.77 29.7975L39.4543 52.5171L43.8696 52.2346L44.1082 44.6218L35.77 29.7975Z" fill="url(#paint4_linear_1_2845)"/>
<path style="mix-blend-mode:multiply" opacity="0.5" d="M73.0758 34.957L76.9093 15.9248L63.3802 35.9532L66.0055 45.5585L73.0758 34.957Z" fill="url(#paint5_linear_1_2845)"/>
<path style="mix-blend-mode:multiply" opacity="0.5" d="M25.8356 40.5328L32.548 25.2922L33.443 24.296L51.1637 22.6753L41.8558 26.9873L35.77 29.7975L37.6942 41.6182L28.9383 45.5585L34.7407 55.0002L7.578 36.8156L25.8356 40.5328Z" fill="url(#paint6_linear_1_2845)"/>
<path style="mix-blend-mode:multiply" opacity="0.5" d="M3.31192 22.3927L9.18898 16.7426L33.443 24.2811L32.548 25.2922L35.7998 29.738L39.4841 52.4576L43.959 52.1751L44.1082 44.6068L35.7998 29.738L55.9369 20.4746C55.9369 20.4746 30.5791 21.4709 9.50222 15.449L0.000488281 7.09265L3.31192 22.3927Z" fill="url(#paint7_linear_1_2845)"/>
<path style="mix-blend-mode:multiply" opacity="0.5" d="M99.0005 10.9883L76.9093 15.9248L63.3802 35.9531L66.0055 45.5584L73.0758 34.9569L76.2978 18.9877L91.2738 16.6682L90.9158 24.5487L99.0005 10.9883Z" fill="url(#paint8_linear_1_2845)"/>
</g>
<defs>
<linearGradient id="paint0_linear_1_2845" x1="0.000488281" y1="31.0464" x2="99.0005" y2="31.0464" gradientUnits="userSpaceOnUse">
<stop stop-color="#471966"/>
<stop offset="1" stop-color="#4A1973"/>
</linearGradient>
<linearGradient id="paint1_linear_1_2845" x1="1.8352" y1="27.8943" x2="75.9796" y2="-1.63397" gradientUnits="userSpaceOnUse">
<stop stop-color="#5B2082"/>
<stop offset="1" stop-color="#A42FA8"/>
</linearGradient>
<linearGradient id="paint2_linear_1_2845" x1="7.56309" y1="32.9942" x2="99.0005" y2="32.9942" gradientUnits="userSpaceOnUse">
<stop stop-color="#A47AFF"/>
<stop offset="1" stop-color="#4F1DA3"/>
</linearGradient>
<linearGradient id="paint3_linear_1_2845" x1="21.1519" y1="57.513" x2="21.1519" y2="38.7485" gradientUnits="userSpaceOnUse">
<stop stop-color="#A47AFF"/>
<stop offset="1" stop-color="#4F1DA3"/>
</linearGradient>
<linearGradient id="paint4_linear_1_2845" x1="39.9465" y1="55.6693" x2="39.9465" y2="32.2211" gradientUnits="userSpaceOnUse">
<stop stop-color="#A47AFF"/>
<stop offset="1" stop-color="#4F1DA3"/>
</linearGradient>
<linearGradient id="paint5_linear_1_2845" x1="63.3802" y1="30.7342" x2="76.9093" y2="30.7342" gradientUnits="userSpaceOnUse">
<stop stop-color="#A47AFF"/>
<stop offset="1" stop-color="#4F1DA3"/>
</linearGradient>
<linearGradient id="paint6_linear_1_2845" x1="7.56309" y1="38.8378" x2="51.1637" y2="38.8378" gradientUnits="userSpaceOnUse">
<stop stop-color="#A47AFF"/>
<stop offset="1" stop-color="#4F1DA3"/>
</linearGradient>
<linearGradient id="paint7_linear_1_2845" x1="0.000488281" y1="29.7974" x2="55.9369" y2="29.7974" gradientUnits="userSpaceOnUse">
<stop stop-color="#A47AFF"/>
<stop offset="1" stop-color="#4F1DA3"/>
</linearGradient>
<linearGradient id="paint8_linear_1_2845" x1="81.1903" y1="50.3611" x2="81.1903" y2="14.6758" gradientUnits="userSpaceOnUse">
<stop stop-color="#A47AFF"/>
<stop offset="1" stop-color="#4F1DA3"/>
</linearGradient>
<clipPath id="clip0_1_2845">
<rect width="99" height="55" fill="white" transform="translate(0.000488281 0.000244141)"/>
</clipPath>
</defs>
</svg>
